P3
# espelho
# arcoiris.ppm
5 3
255
  0   0 255     0 255   0   255 255   0   255 127   0   255   0   0
 75   0 130     0   0 255     0 255   0   255 255   0   255 127   0
127   0 255    75   0 130     0   0 255     0 255   0   255 255   0
