P3
# arcoiris.ppm
5 3
255
255   0   0	255 127   0	255 255   0	  0 255   0	  0   0 255
255 127   0	255 255   0	  0 255   0	  0   0 255	 75   0 130
255 255   0	  0 255   0	  0   0 255	 75   0 130	127   0 255